<?xml version="1.0" encoding="UTF-8"?>
<svg width="120px" height="120px" viewBox="0 0 120 120" version="1.1" xmlns="http://www.w3.org/2000/svg" xmlns:xlink="http://www.w3.org/1999/xlink">
    <!-- Generator: Sketch 49.2 (51160) - http://www.bohemiancoding.com/sketch -->
    <title>icon-FAQ-borrow</title>
    <desc>Created with Sketch.</desc>
    <defs></defs>
    <g id="icon-FAQ-borrow" stroke="none" stroke-width="1" fill="none" fill-rule="evenodd">
        <rect id="Rectangle-10" x="0" y="0" width="120" height="120"></rect>
        <g id="dkw_借款-copy" transform="translate(15.000000, 18.000000)"></g>
        <path d="M95.9922246,56.229018 C95.9483307,58.284934 95.7192234,60.2952617 95.3209193,62.2439847 C97.6226837,61.3570123 100.310235,61.1773213 102.685245,63.3151504 C107.098671,67.308962 104.415619,73.4847584 101.149295,79.2514327 C96.2886937,87.706624 86.5091641,96.4930094 83.1845129,99.1035984 C79.8598618,101.714187 76.2241321,103 68.3499583,103 L21.6881872,103 C18.0913423,103 15,100.681641 15,97.876232 L15,86.1870274 C15,84.0440066 17.6636095,81.9399497 31.1177534,75.1602111 C27.3420924,69.1339421 25.4153735,62.1294321 25.5766681,55.0158151 C25.5766679,41.7913382 32.6175005,29.5714174 44.0469523,22.9591789 C55.4764041,16.3469404 69.5580695,16.3469404 80.9875214,22.9591789 C92.4169732,29.5714174 99.4578058,41.7913382 99.4578056,55.0158151 C99.4578056,56.0917767 98.5873395,56.9640159 97.5135651,56.9640159 C96.8975479,56.9640159 96.3484443,56.676941 95.9922246,56.229018 Z M86.6475946,32.2804745 C80.5525932,25.9434072 71.9868127,22 62.5,22 C53.6099923,22 45.5287794,25.4628626 39.5316436,31.1133056 C48.348316,22.5579381 61.3329523,19.51129 73.2000628,23.5726164 C78.4518792,25.3699654 83.0269848,28.4027404 86.6475946,32.2804745 Z" id="Combined-Shape" fill="#D1F2DB" fill-rule="nonzero"></path>
        <g id="dkw_借款" transform="translate(15.000000, 18.000000)" fill="#009D30" fill-rule="nonzero">
            <path d="M87.6852447,45.3151504 C83.0968372,41.1849647 77.3418855,45.7047906 75.4559723,47.2633511 C73.5700591,48.8219117 71.3341825,50.9064865 68.8844395,53.2638095 C65.5089886,56.6913041 61.8896696,59.8687285 58.0550201,62.7710293 C54.6060762,65.4166348 50.2853851,66.6556213 45.9618445,66.2388266 L35.8517941,66.2388266 C35.7929306,65.2298855 36.283992,64.2681286 37.1349928,63.7256476 C39.3708693,61.7774469 41.6650731,59.2837499 41.665073,56.4198948 C41.665073,52.3286731 39.3319845,50.5752925 33.8881112,50.5752925 C30.5245752,50.5752925 24.4002177,53.1079534 21.3283179,54.685996 L20.0451192,55.3289023 C12.1642047,43.5235239 12.6726542,27.9971948 21.3089781,16.7349215 C29.9453019,5.47264831 44.7865573,0.982061418 58.2000628,5.57261637 C71.6135684,10.1631713 80.6127054,22.8127463 80.5693246,37.0158151 C80.5693246,38.0917767 81.4397908,38.9640159 82.5135651,38.9640159 C83.5873395,38.9640159 84.4578056,38.0917767 84.4578056,37.0158151 C84.4578058,23.7913382 77.4169732,11.5714174 65.9875214,4.9591789 C54.5580695,-1.65305963 40.4764041,-1.65305963 29.0469523,4.9591789 C17.6175005,11.5714174 10.5766679,23.7913382 10.5766681,37.0158151 C10.4153735,44.1294321 12.3420924,51.1339421 16.1177534,57.1602111 C2.66360946,63.9399497 0,66.0440066 0,68.1870274 L0,79.876232 C0,82.6816411 3.09134233,85 6.68818721,85 L53.3499583,85 C61.2241321,85 64.8598618,83.7141875 68.1845129,81.1035984 C71.5091641,78.4930094 81.2886937,69.706624 86.1492948,61.2514327 C89.4156188,55.4847584 92.0986706,49.308962 87.6852447,45.3151504 Z M82.7663164,59.4201239 C78.1390241,67.4856751 68.1456281,75.9798304 65.73477,77.9280312 C62.9350637,80.1684621 60.1353574,81.0256704 53.3499583,81.0256704 L6.68818721,81.0256704 C5.42443088,81.0256704 3.88848095,80.6165483 3.88848095,79.8177859 L3.88848095,68.5571856 C9.16956447,65.1604342 14.6637191,62.1084161 20.3367552,59.4201239 C21.3477603,58.9135917 22.3976501,58.5044695 22.922595,58.2317215 C26.3053892,56.3991839 29.9735861,55.1541993 33.7714568,54.549622 C37.6599377,54.549622 37.6599377,55.1925283 37.6599377,56.4978228 C37.6599377,57.8031172 35.3268492,60.1019942 34.451941,60.8812745 C32.2160645,62.8294752 31.3217138,65.1673161 32.1188524,67.310337 C32.7368879,68.7462123 34.2248291,69.6027282 35.7740244,69.4143938 L45.8840749,69.4143938 C50.4530399,69.4143938 54.0304425,69.784552 60.1936847,65.5179924 C64.2038034,62.5597334 67.9862899,59.3035554 71.5091641,55.7769885 C73.8811375,53.4975936 76.1364564,51.4130188 77.7890608,50.1272063 C82.8440861,46.2308047 84.3605936,47.5555812 85.0021929,48.1790055 C85.6437922,48.8024298 87.8018992,50.6532205 82.7663164,59.4201239 Z" id="Shape"></path>
        </g>
        <path d="M50.2265696,53.212186 L50.2265696,63.3297702 L47,63.3297702 L47,40 L55.1565059,40 C57.7661641,40 59.7588648,40.5665363 61.1346679,41.6996259 C62.5104709,42.8327154 63.1983621,44.4788775 63.1983621,46.6381614 C63.1983621,47.8353881 62.8789841,48.8776011 62.2402184,49.7648316 C61.6014527,50.6520622 60.6706158,51.3575602 59.4476797,51.8813469 C60.7579683,52.2982383 61.6997242,52.9743406 62.2729754,53.909674 C62.8462267,54.8450073 63.132848,56.002131 63.132848,57.3810796 L63.132848,59.5777659 C63.132848,60.3046536 63.2147399,60.9567048 63.3785259,61.5339391 C63.542312,62.1111734 63.8262036,62.5815054 64.2302093,62.9449492 L64.2302093,63.3297702 L60.9053685,63.3297702 C60.4795247,62.9663263 60.206552,62.4318582 60.0864422,61.7263495 C59.9663324,61.0208409 59.9062784,60.2939642 59.9062784,59.5456975 L59.9062784,57.413148 C59.9062784,56.1517842 59.5295761,55.1362946 58.7761601,54.3666489 C58.0227442,53.5970031 57.0127452,53.212186 55.7461328,53.212186 L50.2265696,53.212186 Z M50.2265696,50.726884 L54.8289354,50.726884 C56.6524204,50.726884 57.9654191,50.3874967 58.7679709,49.7087119 C59.5705227,49.0299271 59.9717925,47.9957312 59.9717925,46.606093 C59.9717925,45.2912815 59.5814416,44.2731196 58.8007279,43.5515767 C58.0200143,42.8300338 56.8052858,42.4692678 55.1565059,42.4692678 L50.2265696,42.4692678 L50.2265696,50.726884 Z M83,55.312667 C83,57.8140157 82.3885411,59.8316332 81.1656051,61.3655799 C79.942669,62.8995266 78.2556977,63.6664885 76.1046406,63.6664885 C75.0127334,63.6664885 74.0545992,63.4874417 73.2302093,63.1293426 C72.4058194,62.7712435 71.7042795,62.234103 71.1255687,61.5179049 L71.1255687,70 L67.8989991,70 L67.8989991,45.980759 L70.3721565,45.980759 L70.8798908,48.2255478 C71.4586016,47.3917649 72.1792496,46.7557478 73.0418562,46.3174773 C73.9044629,45.8792068 74.9090025,45.6600748 76.055505,45.6600748 C78.2502385,45.6600748 79.9563178,46.5125516 81.1737944,48.2175307 C82.3912709,49.9225099 83,52.1752933 83,54.9759487 L83,55.312667 Z M79.7734304,54.9759487 C79.7734304,53.0090762 79.37762,51.3923099 78.5859873,50.1256013 C77.7943545,48.8588927 76.6287611,48.2255478 75.089172,48.2255478 C74.1610509,48.2255478 73.36943,48.4313181 72.7142857,48.8428648 C72.0591414,49.2544115 71.5295744,49.8182754 71.1255687,50.5344735 L71.1255687,58.9203634 C71.5295744,59.6365616 72.0591414,60.1950808 72.7142857,60.595938 C73.36943,60.9967952 74.1719698,61.1972207 75.121929,61.1972207 C76.6505991,61.1972207 77.8080033,60.6493908 78.5941765,59.5537146 C79.3803497,58.4580383 79.7734304,57.04437 79.7734304,55.312667 L79.7734304,54.9759487 Z" id="Rp" fill="#009D30"></path>
    </g>
</svg>