<?xml version="1.0" encoding="UTF-8"?>
<svg width="120px" height="120px" viewBox="0 0 120 120" version="1.1" xmlns="http://www.w3.org/2000/svg" xmlns:xlink="http://www.w3.org/1999/xlink">
    <!-- Generator: Sketch 49.2 (51160) - http://www.bohemiancoding.com/sketch -->
    <title>icon-FAQ-repayment</title>
    <desc>Created with Sketch.</desc>
    <defs></defs>
    <g id="icon-FAQ-repayment" stroke="none" stroke-width="1" fill="none" fill-rule="evenodd">
        <rect id="Rectangle-10-Copy" x="0" y="0" width="120" height="120"></rect>
        <g id="Group-8" transform="translate(17.000000, 26.000000)">
            <g id="Group-3">
                <rect id="Rectangle-6" fill="#D1F2DB" x="1" y="0" width="81" height="66"></rect>
                <g id="dkw_还款" fill="#009D30" fill-rule="nonzero">
                    <path d="M13.8586956,38.8243244 C12.8381695,38.8243244 12.0108697,39.5957257 12.0108697,40.5472973 C12.0108697,41.498869 12.8381695,42.2702702 13.8586956,42.2702703 L26.7934782,42.2702703 C27.8140043,42.2702702 28.6413042,41.498869 28.6413042,40.5472973 C28.6413042,39.5957257 27.8140043,38.8243244 26.7934782,38.8243244 L13.8586956,38.8243244 Z M47.1195652,30.2094594 C47.1195652,29.7524986 46.9248841,29.3142537 46.5783495,28.9911336 C46.2318148,28.6680134 45.761813,28.4864865 45.2717391,28.4864865 L13.8586956,28.4864865 C12.8381695,28.4864865 12.0108696,29.2578878 12.0108696,30.2094594 C12.0108696,31.1610311 12.8381695,31.9324324 13.8586956,31.9324324 L45.2717391,31.9324324 C45.761813,31.9324324 46.2318148,31.7509054 46.5783495,31.4277853 C46.9248841,31.1046652 47.1195652,30.6664203 47.1195652,30.2094594 Z" id="Shape"></path>
                    <path d="M56.2159353,64.3243603 L8.07307388,64.3243603 C5.84655072,64.2632067 3.99271599,62.6057289 3.69477067,60.409804 L3.69477067,18.3788643 L81.2849541,18.3788643 L81.2849541,38.2456968 C81.2849542,39.2606966 82.1120567,40.0835164 83.1323394,40.0835164 C84.1526221,40.0835164 84.9797246,39.2606966 84.9797247,38.2456968 L84.9797247,7.11302873 C85.1253986,5.26301691 84.4812023,3.43750495 83.2050703,2.08404514 C81.9289384,0.730585335 80.1388657,-0.0256775487 78.273716,0.00066595281 L8.07307388,0.00066595281 C3.99035229,0.00066595281 0,3.05144686 0,7.11302873 L0,60.409804 C0.30601925,64.6393984 3.81097169,67.9347077 8.07307388,68 L56.2159353,68 C57.236218,68 58.0633206,67.17718 58.0633206,66.1621801 C58.0633206,65.1471803 57.236218,64.3243603 56.2159353,64.3243603 Z M3.69477067,7.11302873 C3.69477067,5.09142688 6.04095,3.67630558 8.07307388,3.67630558 L78.273716,3.67630558 C79.1596828,3.65373325 80.0096157,4.02538594 80.5919545,4.6900087 C81.1742934,5.35463145 81.4283669,6.24298022 81.2849541,7.11302873 L81.2849541,14.7032246 L3.69477067,14.7032246 L3.69477067,7.11302873 Z" id="Shape"></path>
                    <path d="M83.3837615,44.130228 L66.4694839,44.130228 C66.0424907,44.0560168 65.6049495,44.1703886 65.2635315,44.44546 C64.9221136,44.7205314 64.7081894,45.131028 64.673913,45.5768719 L64.673913,62.435838 C64.673913,63.4601449 65.4778175,64.2905097 66.4694839,64.2905097 C67.4611503,64.2905097 68.2650548,63.4601449 68.2650548,62.435838 L68.2650548,48.7298138 C75.4473383,52.8471851 79.3796385,58.4297469 79.3796385,66.1451814 C79.4554381,67.2002859 80.3125933,68.0125504 81.3368107,67.9998532 C82.2878838,68.001623 83.0753188,67.237071 83.1323816,66.2564617 C83.1323816,58.4297469 80.1337783,51.5303681 73.8672359,47.8210247 L83.3837615,47.8210247 C84.3013712,47.7258864 85,46.9282018 85,45.9756264 C85,45.0230509 84.3013712,44.2253663 83.3837615,44.130228 Z" id="Shape"></path>
                </g>
            </g>
        </g>
    </g>
</svg>