<?xml version="1.0" encoding="UTF-8"?>
<svg width="120px" height="120px" viewBox="0 0 120 120" version="1.1" xmlns="http://www.w3.org/2000/svg" xmlns:xlink="http://www.w3.org/1999/xlink">
    <!-- Generator: Sketch 49.2 (51160) - http://www.bohemiancoding.com/sketch -->
    <title>icon-FAQ-other</title>
    <desc>Created with Sketch.</desc>
    <defs></defs>
    <g id="icon-FAQ-other" stroke="none" stroke-width="1" fill="none" fill-rule="evenodd">
        <rect id="Rectangle-10-Copy-2" x="0" y="0" width="120" height="120"></rect>
        <g id="Group-9" transform="translate(19.000000, 19.000000)">
            <g id="Group-5">
                <g id="Group-4">
                    <circle id="Oval-2" fill="#D1F2DB" cx="41.5" cy="42.5" r="37.5"></circle>
                    <path d="M61.0001193,36.8038807 C59.1436181,35.7320398 56.8559049,35.7320398 54.9998807,36.8038807 C53.1438566,37.8757217 52,39.8565562 52,42.0002381 C52,44.14392 53.1433796,46.1247545 54.9998807,47.1961193 C56.8563819,48.2679602 59.1440951,48.2679602 61.0001193,47.1961193 C62.8570974,46.1247545 64,44.14392 64,42.0002381 C64,39.8565562 62.8570974,37.8757217 61.0001193,36.8038807 Z" id="Shape" fill="#009D30" fill-rule="nonzero"></path>
                    <path d="M81.0405822,28.9939781 C80.1526861,26.2051715 78.9944704,23.5329802 77.5330808,20.9969092 C76.5449586,19.2821252 74.2555591,19.1381198 73.1435057,20.7213486 C72.4481604,21.7102959 72.5587835,22.7162583 73.1272865,23.7496107 C77.9693352,32.5484615 79.1454335,41.8295434 76.3869255,51.4766562 C70.8042011,71.0041122 50.5019481,82.0468733 31.0293686,76.2654947 C16.761066,72.0299947 6.39077267,59.1608143 5.29036378,44.3000442 C4.84038554,38.2227699 5.85138101,32.3924211 8.28675307,26.7990379 C14.9919279,11.4004266 32.1039931,2.51608561 48.5560626,5.9016636 C52.3384582,6.67979044 55.9166586,7.99285354 59.2777714,9.89397302 C59.8533443,10.2189188 60.4480475,10.4363793 61.1205196,10.3326291 C62.2504558,10.1579136 63.1296184,9.33538171 63.3321502,8.27131919 C63.5546441,7.10475144 63.0314716,6.04442394 61.8923862,5.41362245 C52.5721807,0.246030255 42.680977,-1.2608383 32.2878105,1.06026218 C13.434055,5.27086211 0.00457503646,22.1427269 3.96317122e-07,41.4718125 C-0.000415480059,44.5639848 0.326463352,47.6217121 1.00891648,50.6362792 C6.28929883,73.9655592 30.2113397,88.0374124 53.1598141,81.3197916 C69.374834,76.5730104 81.088408,62.4733521 82.79059,45.5981673 C83.3603406,39.950834 82.7643898,34.4089109 81.0405822,28.9939781 Z" id="Shape" fill="#009D30" fill-rule="nonzero"></path>
                    <path d="M39.0002385,36.8038568 C37.1438111,37.8756659 36,39.8564414 36,42.0000595 C36,45.3135732 38.6863821,48 42,48 C45.3136179,48 48,45.3135732 48,42.0000595 C48,39.8564414 46.8566659,37.8756659 44.9997615,36.8038568 C43.1438111,35.7320477 40.8566659,35.7320477 39.0002385,36.8038568 Z" id="Shape" fill="#009D30" fill-rule="nonzero"></path>
                    <path d="M20.0002385,36.8038807 C18.1438111,37.8757217 17,39.8565562 17,42.0002381 C17,44.14392 18.1433341,46.1247545 20.0002385,47.1961193 C21.8566659,48.2679602 24.1438111,48.2679602 26.0002385,47.1961193 C27.8566659,46.1247545 29,44.14392 29,42.0002381 C29,39.8565562 27.8566659,37.8757217 26.0002385,36.8038807 C24.1438111,35.7320398 21.8561889,35.7320398 20.0002385,36.8038807 Z" id="Shape" fill="#009D30" fill-rule="nonzero"></path>
                </g>
                <g id="其他"></g>
            </g>
        </g>
    </g>
</svg>